<?xml version='1.0' encoding='utf-8'?>
<svg xmlns:xlink="http://www.w3.org/1999/xlink" xmlns="http://www.w3.org/2000/svg" class="img-fluid" id="outputsvg" width="652" height="640" viewBox="0 0 6520 6400"><g id="l5Pg5C2dySm8pBstRyKQWA5" fill="rgb(0,0,0)"><g><path id="p15L81zZI6" d="M3290 6266 c0 -15 21 -26 51 -26 38 0 33 -61 -13 -182 l-10 -28 -119 0 c-116 0 -119 1 -135 25 -24 36 -43 126 -33 153 5 14 20 25 39 28 16 4 30 13 30 20 0 19 -195 20 -206 2 -4 -6 -2 -14 5 -16 8 -3 27 -16 43 -31 23 -21 48 -80 127 -301 128 -356 123 -346 155 -352 37 -7 49 13 97 167 155 498 157 505 195 521 62 26 39 34 -96 34 -104 0 -130 -3 -130 -14z m10 -289 c0 -7 -20 -82 -45 -167 -25 -85 -45 -156 -45 -159 -1 -21 -120 297 -120 321 0 4 33 9 73 11 39 1 87 4 105 5 21 1 32 -3 32 -11z"/><path id="pBcnDnV64" d="M3845 6231 c-57 -26 -123 -94 -152 -158 -33 -72 -48 -195 -34 -275 13 -73 53 -163 89 -201 55 -57 90 -71 197 -78 55 -4 111 -10 125 -14 23 -6 28 0 68 74 26 49 39 82 32 86 -5 3 -36 -14 -68 -39 -124 -98 -221 -102 -299 -13 -126 144 -48 501 123 557 20 7 60 10 90 8 71 -6 125 -43 165 -113 17 -30 37 -55 45 -55 19 0 18 10 -6 66 -51 119 -134 174 -259 174 -52 0 -89 -6 -116 -19z"/><path id="pvE13Jp0k" d="M2457 6223 c-4 -6 -29 -153 -57 -327 -28 -175 -56 -330 -61 -344 -6 -15 -24 -42 -42 -60 -19 -20 -27 -35 -21 -41 5 -5 59 0 129 13 90 16 120 25 120 36 0 10 -13 16 -42 18 -39 3 -43 6 -43 30 -1 54 74 502 83 499 14 -4 237 -419 237 -440 0 -20 -22 -47 -38 -47 -5 0 -15 -7 -22 -15 -24 -29 21 -29 173 1 38 8 34 30 -8 44 -40 13 -62 47 -250 390 -119 216 -148 260 -158 243z"/><path id="pKEq5QFNx" d="M3170 5491 c0 -11 158 -151 170 -151 4 0 15 9 25 20 24 27 12 40 -90 95 -83 45 -105 53 -105 36z"/><path id="p5gvXM8Zd" d="M2390 5261 c0 -5 53 -116 118 -248 167 -338 263 -587 337 -868 32 -123 85 -386 85 -423 0 -9 -25 30 -56 88 -91 170 -141 228 -261 298 -101 60 -187 84 -315 90 -144 6 -235 -12 -351 -71 -108 -53 -235 -178 -290 -283 -58 -113 -50 -129 36 -65 117 87 208 115 356 109 93 -4 114 -8 173 -36 197 -95 340 -395 355 -748 7 -162 -2 -197 -26 -102 -45 176 -173 271 -366 270 -184 0 -333 -79 -436 -229 -65 -95 -108 -245 -109 -384 -1 -230 114 -413 321 -512 111 -53 169 -67 286 -67 213 0 394 105 523 302 24 37 45 66 46 65 2 -1 -4 -45 -12 -97 -57 -379 0 -648 178 -836 147 -155 353 -244 564 -244 180 0 323 59 450 185 126 125 170 235 162 409 -4 84 -14 120 -56 198 -1 3 32 -5 75 -19 103 -34 239 -36 325 -5 148 54 245 162 293 327 13 44 16 83 13 160 -5 116 -30 184 -93 253 -142 158 -446 124 -524 -58 -12 -28 -26 -48 -31 -45 -19 12 -76 220 -106 385 -25 142 -22 388 5 505 67 282 261 482 537 556 59 16 110 22 199 22 121 1 177 -9 247 -43 43 -21 51 -15 39 27 -47 165 -290 316 -551 342 -262 27 -502 -67 -698 -274 -131 -137 -234 -318 -273 -477 -12 -49 -25 -88 -28 -88 -4 0 -13 28 -20 63 -45 220 -217 632 -348 832 -129 196 -308 384 -583 609 -151 125 -190 151 -190 127z m179 -148 c410 -329 649 -676 818 -1188 42 -127 109 -382 102 -389 -2 -2 -110 -6 -239 -7 l-235 -4 -6 65 c-4 36 -12 118 -19 184 -40 403 -198 863 -425 1240 -87 144 -86 171 4 99z m2111 -719 c139 -36 265 -111 315 -186 14 -21 25 -42 25 -47 0 -5 -24 -3 -52 5 -220 60 -484 1 -675 -150 -123 -99 -206 -219 -263 -382 l-32 -91 -51 -7 c-67 -8 -285 -8 -315 0 -26 7 -26 3 9 154 12 50 43 131 76 199 141 287 346 463 603 517 84 17 273 11 360 -12z m-2257 -240 c184 -48 299 -152 402 -366 39 -82 96 -248 89 -260 -3 -5 -72 -8 -155 -8 -172 0 -164 -4 -218 102 -68 136 -188 252 -308 299 -49 19 -78 22 -183 23 -142 1 -196 -12 -281 -70 -80 -54 -99 -45 -51 22 81 111 245 222 382 258 75 20 247 20 323 0z m557 -710 c13 -14 40 -250 40 -347 0 -123 -26 -167 -97 -167 -62 0 -123 62 -188 190 -40 80 -83 212 -91 285 l-7 53 168 -3 c91 -1 170 -6 175 -11z m580 -146 c0 -392 -66 -568 -213 -568 -90 0 -157 118 -201 359 -17 89 -46 310 -46 348 l0 23 230 0 230 0 0 -162z m400 75 c-1 -183 -32 -314 -90 -376 -32 -35 -44 -42 -79 -42 -28 0 -47 7 -65 24 -51 48 -84 185 -89 364 -2 78 1 100 13 107 8 5 81 10 163 10 l147 0 0 -87z m-1701 -153 c112 -19 194 -76 239 -165 65 -132 12 -305 -95 -305 -42 0 -83 23 -83 46 0 8 20 23 44 34 52 22 65 50 42 85 -23 35 -66 33 -110 -6 -64 -55 -58 -138 15 -203 33 -30 46 -36 85 -36 56 0 90 17 137 69 55 61 80 117 114 261 l9 35 41 -60 c22 -33 72 -92 112 -131 39 -39 71 -79 71 -89 0 -30 -88 -228 -136 -305 -96 -156 -184 -231 -319 -272 -82 -25 -209 -29 -295 -9 -139 33 -269 122 -341 234 -58 89 -72 151 -66 282 9 184 57 307 161 411 70 70 123 100 210 119 77 17 87 17 165 5z m1775 -280 c43 -169 100 -317 146 -378 19 -25 57 -60 84 -77 44 -27 58 -30 127 -30 75 0 79 1 112 33 66 64 70 159 7 180 -42 15 -70 -8 -70 -59 0 -30 -6 -46 -26 -64 -31 -29 -53 -31 -94 -10 -61 32 -81 141 -37 205 49 74 184 109 291 75 221 -70 275 -398 100 -612 -64 -78 -217 -132 -334 -118 -237 29 -458 204 -588 468 -28 56 -53 112 -57 124 -7 24 -8 22 81 92 85 65 163 180 209 306 9 24 7 30 49 -135z m-900 -54 c22 -63 43 -103 78 -148 24 -31 26 -38 13 -38 -37 0 -144 33 -210 65 -65 31 -189 114 -181 122 1 2 17 -2 35 -8 87 -31 177 18 202 109 18 70 21 71 35 6 7 -34 19 -82 28 -108z m571 38 c25 -19 48 -27 80 -28 25 0 45 -5 45 -9 0 -18 -104 -106 -159 -136 -58 -31 -156 -61 -198 -61 -22 0 -21 2 12 31 47 42 90 135 111 242 l17 87 28 -49 c16 -27 45 -62 64 -77z m-684 -228 c49 -21 129 -45 202 -61 33 -7 33 -12 2 -50 l-24 -30 -32 19 c-28 17 -32 17 -47 2 -15 -14 -14 -18 6 -39 28 -29 28 -31 -4 -73 -48 -62 -5 -89 52 -33 l33 32 26 -21 c46 -36 82 -1 39 39 -13 12 -24 27 -24 33 0 6 19 33 43 59 42 47 43 48 125 57 46 5 110 17 143 26 33 9 62 14 66 10 4 -3 9 -118 11 -254 4 -191 1 -283 -13 -403 -20 -182 -14 -220 40 -268 78 -69 185 -42 230 59 26 58 13 95 -34 95 -32 0 -35 -3 -47 -46 -18 -59 -51 -80 -89 -55 -39 26 -58 79 -53 151 7 107 65 157 198 170 79 8 123 -8 170 -62 59 -67 75 -116 75 -228 0 -94 -2 -105 -33 -168 -107 -218 -363 -350 -615 -318 -241 31 -417 147 -504 331 -105 221 -114 486 -32 978 7 44 17 72 24 72 7 0 37 -11 66 -24z m739 -317 c19 -34 68 -96 107 -138 40 -42 73 -77 73 -78 0 -2 -29 -3 -64 -3 -70 0 -116 -13 -160 -43 l-29 -21 6 100 c4 54 7 140 7 189 1 101 -1 101 60 -6z"/><path id="p1BVujAN6n" d="M2682 3419 c-12 -18 -11 -24 1 -37 18 -17 45 -10 54 14 4 11 -1 22 -12 30 -25 18 -28 18 -43 -7z"/><path id="pzTk7MDWT" d="M2794 3419 c-18 -20 -18 -21 1 -35 24 -18 30 -18 46 2 9 11 10 20 3 32 -16 24 -29 25 -50 1z"/><path id="p6A5VGgEn" d="M2912 3428 c-28 -28 -3 -66 33 -52 25 10 12 64 -15 64 -3 0 -11 -5 -18 -12z"/><path id="p3lIEmcRK" d="M3160 3416 c0 -26 20 -39 45 -30 8 4 15 17 15 30 0 20 -5 24 -30 24 -25 0 -30 -4 -30 -24z"/><path id="pwwDcI7mK" d="M3291 3427 c-18 -22 21 -52 48 -37 24 12 26 21 9 38 -16 16 -43 15 -57 -1z"/><path id="p1G9t6f0Xf" d="M3427 3433 c-13 -13 -7 -32 14 -44 17 -9 25 -8 37 4 8 9 12 23 9 31 -6 16 -48 22 -60 9z"/><path id="pf4kCe08" d="M3662 3413 c2 -22 8 -28 28 -28 20 0 25 5 25 25 0 20 -6 26 -28 28 -26 3 -28 1 -25 -25z"/><path id="p17c9dzdVQ" d="M3774 3425 c-10 -25 22 -53 44 -39 9 6 17 20 17 30 0 25 -52 33 -61 9z"/><path id="ply5AvX0W" d="M3884 3425 c-10 -25 22 -53 44 -39 9 6 17 20 17 30 0 25 -52 33 -61 9z"/><path id="plsB2xD5v" d="M448 4184 c-32 -17 -68 -81 -68 -119 0 -34 25 -82 49 -95 31 -16 81 -12 117 11 29 18 34 18 34 4 0 -31 40 -95 70 -110 71 -36 153 -7 189 67 39 82 20 167 -43 193 -38 16 -71 10 -125 -23 -38 -23 -51 -21 -51 8 0 10 -16 32 -35 49 -40 35 -91 41 -137 15z m88 -37 c21 -18 28 -35 32 -75 4 -49 3 -52 -24 -63 -84 -32 -161 30 -130 105 25 59 76 72 122 33z m255 -74 c81 -48 37 -173 -61 -173 -55 0 -83 35 -88 110 -4 55 -3 60 19 69 38 15 98 12 130 -6z"/><path id="p7DVA3KSZ" d="M6113 4038 c3 -18 7 -40 9 -48 2 -11 -23 -24 -92 -47 -144 -49 -186 -42 -174 28 5 32 5 33 -10 15 -20 -24 -21 -86 -2 -111 19 -27 71 -23 180 15 101 34 121 36 130 15 8 -23 23 -18 30 9 3 14 23 41 44 61 l37 37 -29 -6 c-86 -20 -81 -21 -95 23 -14 49 -36 56 -28 9z"/><path id="pARm7T8RZ" d="M343 3823 c-4 -10 -20 -38 -36 -61 -16 -24 -25 -47 -21 -52 5 -4 79 -24 164 -44 220 -53 227 -55 245 -72 11 -11 14 -26 9 -50 -8 -44 11 -45 25 -1 14 43 41 165 41 183 0 25 -18 15 -29 -16 -5 -17 -16 -33 -24 -36 -19 -7 -325 62 -344 78 -11 9 -13 23 -9 50 6 39 -9 54 -21 21z"/><path id="p2TfWE7yW" d="M6030 3765 c-113 -29 -120 -29 -120 -10 0 22 -17 18 -23 -6 -4 -14 2 -29 17 -44 20 -19 22 -31 18 -76 -5 -69 21 -109 72 -109 55 0 87 47 100 150 8 61 16 70 65 70 59 0 79 -50 36 -90 -45 -42 -19 -95 26 -54 18 16 20 28 17 77 -5 74 -31 111 -79 114 -19 1 -77 -9 -129 -22z m43 -77 c-12 -67 -44 -108 -83 -108 -33 0 -50 17 -50 51 0 36 27 66 70 78 64 17 70 15 63 -21z"/><path id="p13mmMTICK" d="M6063 3470 c-92 -41 -119 -111 -73 -186 l21 -32 -57 -8 c-52 -6 -58 -5 -75 17 l-19 24 1 -40 c2 -57 12 -98 27 -103 6 -2 12 3 12 12 0 25 32 35 192 61 152 24 153 24 180 5 l27 -20 8 43 c8 37 7 43 -10 50 -14 5 -17 12 -12 25 53 120 -86 214 -222 152z m181 -61 c18 -14 26 -30 26 -53 0 -54 -15 -64 -129 -82 l-105 -16 -18 22 c-30 37 -24 85 15 113 38 30 55 34 128 36 43 1 63 -4 83 -20z"/><path id="px2avS5zV" d="M241 3393 c-18 -36 -28 -70 -24 -73 4 -4 97 -19 207 -34 109 -14 205 -31 212 -37 8 -6 14 -26 14 -45 0 -39 17 -55 24 -22 6 28 26 186 26 205 0 26 -19 13 -30 -21 -6 -19 -18 -37 -27 -40 -9 -4 -88 3 -177 14 -178 24 -191 30 -180 87 10 54 -12 38 -45 -34z"/><path id="pDvcx6x3q" d="M6012 3120 c-17 -28 -15 -44 8 -65 18 -16 18 -20 5 -46 -45 -86 10 -168 90 -135 36 15 52 41 79 124 17 50 19 52 52 52 75 0 99 -47 46 -92 -39 -33 -44 -44 -27 -62 55 -54 105 113 54 178 -20 26 -22 26 -155 26 -131 0 -135 1 -129 20 8 26 -7 26 -23 0z m168 -95 c-22 -57 -41 -83 -69 -94 -42 -18 -71 -1 -71 42 0 57 24 75 102 76 47 1 47 1 38 -24z"/><path id="pANpvpIU1" d="M597 3062 c-33 -36 -9 -80 37 -68 36 9 44 45 16 68 -28 22 -33 22 -53 0z"/><path id="pfUBKR8OT" d="M6063 2800 c-38 -16 -55 -55 -57 -128 l-1 -67 45 -22 c25 -12 46 -18 48 -13 2 5 -13 29 -32 55 -41 53 -46 95 -16 125 24 24 29 24 57 5 14 -10 30 -41 43 -85 32 -109 99 -143 161 -81 26 27 28 34 26 93 -3 62 -3 63 -41 81 -21 10 -40 16 -43 13 -3 -2 9 -22 25 -43 55 -68 51 -133 -7 -133 -37 0 -44 10 -69 96 -12 39 -30 78 -40 87 -23 21 -70 29 -99 17z"/><path id="p18SR2kxGQ" d="M609 2681 c42 -41 51 -56 51 -85 0 -27 -6 -40 -24 -51 -35 -23 -55 -9 -100 74 -42 77 -73 98 -126 86 -49 -11 -63 -42 -55 -125 l7 -70 39 -10 c59 -16 63 -4 14 44 -34 32 -45 50 -45 72 0 36 16 54 47 54 24 0 36 -14 80 -100 16 -30 41 -61 56 -70 23 -13 31 -13 69 0 61 21 73 50 57 140 -13 68 -14 71 -49 80 -70 20 -74 13 -21 -39z"/><path id="p1NyrpwGz" d="M6015 2479 c-38 -34 -61 -93 -51 -132 9 -37 55 -88 93 -103 77 -33 185 -4 223 59 37 60 18 157 -31 157 -33 0 -33 -28 0 -65 36 -41 38 -54 13 -85 -39 -48 -196 -31 -242 27 -33 42 -21 107 27 138 23 16 31 35 13 35 -5 0 -25 -14 -45 -31z"/><path id="pT9HIVlOc" d="M644 2408 c-141 -159 -187 -207 -195 -202 -16 10 -10 95 9 122 10 15 22 33 26 40 13 22 -19 13 -53 -15 l-32 -28 22 -97 c12 -54 26 -98 30 -98 4 0 58 54 120 120 62 66 116 120 120 120 4 0 10 -17 14 -39 6 -38 -7 -82 -37 -123 -7 -9 -9 -20 -6 -23 7 -8 88 44 88 56 0 5 -11 52 -25 105 -14 53 -25 98 -25 100 0 14 -23 -2 -56 -38z"/><path id="pgZ1zYka7" d="M5916 2158 c-19 -30 -72 -186 -65 -192 3 -3 76 13 163 35 87 22 162 39 166 37 4 -2 1 -20 -7 -40 -12 -30 -26 -43 -64 -60 -27 -13 -49 -27 -49 -31 0 -4 24 -7 53 -5 l52 3 33 94 c18 52 30 96 27 99 -3 3 -77 -12 -165 -33 -88 -21 -162 -36 -166 -32 -3 3 4 24 17 47 17 29 37 47 71 63 26 12 48 25 48 29 0 5 -22 8 -50 8 -40 0 -52 -4 -64 -22z"/><path id="pBYtpAu0l" d="M732 2108 c-27 -27 -6 -68 35 -68 29 0 48 33 33 60 -12 22 -49 27 -68 8z"/><path id="pIBsiGVbo" d="M5817 1888 c-21 -7 -36 -27 -61 -79 l-33 -70 39 -42 39 -42 -6 30 c-24 119 -12 175 39 175 46 0 57 -28 50 -124 -7 -81 -6 -88 16 -111 31 -33 74 -41 106 -20 13 9 36 40 51 70 l25 55 -26 35 c-32 42 -48 38 -35 -8 22 -76 4 -137 -41 -137 -23 0 -50 26 -50 47 0 9 5 44 11 77 12 71 3 107 -33 129 -34 22 -60 26 -91 15z"/><path id="pBG03dnWs" d="M860 1787 c-25 -7 -43 -16 -41 -22 2 -5 29 -17 61 -26 73 -20 116 -51 130 -94 20 -62 -27 -125 -94 -125 -13 0 -60 27 -106 60 -75 54 -88 60 -133 60 -44 0 -54 -4 -88 -39 -33 -33 -39 -45 -39 -83 0 -44 11 -67 61 -125 15 -17 28 -36 30 -42 3 -8 20 -8 62 0 67 14 70 30 6 41 -90 16 -139 53 -139 108 0 30 57 90 86 90 21 0 75 -28 104 -55 79 -72 140 -91 200 -60 35 18 75 69 84 108 9 37 -21 102 -68 146 -20 19 -36 43 -36 53 0 21 -15 22 -80 5z"/><path id="p8SeDEvxX" d="M5665 1611 c-46 -20 -92 -70 -101 -107 -9 -33 1 -91 21 -120 46 -71 168 -105 232 -65 44 28 66 64 66 111 0 45 -32 105 -55 105 -9 0 -44 -35 -77 -77 -34 -43 -65 -78 -69 -78 -5 0 -21 13 -36 29 -40 42 -47 107 -15 145 13 15 40 32 59 39 37 12 51 30 28 34 -7 2 -31 -5 -53 -16z m180 -173 l20 -37 -21 -28 c-24 -32 -86 -43 -117 -21 -17 13 -16 17 25 71 24 31 50 56 58 54 8 -1 24 -19 35 -39z"/><path id="p5kXjjNeu" d="M1065 1345 c-21 -91 -42 -165 -46 -165 -4 0 -18 15 -31 33 -18 24 -23 44 -22 85 1 28 -2 52 -7 52 -11 0 -39 -55 -39 -77 0 -20 124 -161 134 -152 3 3 25 78 48 167 24 89 46 162 50 162 4 0 17 -15 30 -32 18 -26 23 -46 23 -95 0 -35 2 -63 5 -63 9 0 50 75 50 90 0 16 -129 160 -144 160 -6 0 -28 -72 -51 -165z"/><path id="p19dSYEHrg" d="M5427 1352 c-51 -52 -58 -67 -27 -57 24 8 36 -17 46 -95 7 -49 6 -50 -21 -50 -36 0 -88 55 -82 87 2 13 -1 23 -7 23 -12 0 -96 -81 -96 -93 0 -3 13 -4 29 -1 34 7 45 -3 191 -161 89 -97 100 -113 94 -137 -3 -16 -1 -28 4 -28 13 0 71 30 77 40 3 5 -28 44 -68 87 -115 122 -139 151 -127 158 5 3 42 3 81 -1 68 -6 70 -8 65 -30 -4 -14 -2 -24 4 -24 11 0 90 69 90 79 0 4 -39 6 -87 6 l-88 0 -17 90 c-12 62 -14 99 -8 117 14 44 -3 41 -53 -10z"/><path id="pBYnna42J" d="M5923 1335 c-29 -13 -53 -28 -53 -33 0 -14 121 5 137 21 18 18 9 37 -15 36 -9 0 -41 -11 -69 -24z"/><path id="pbQrCeUzr" d="M1315 1228 c-44 -15 -92 -65 -111 -115 -24 -63 -14 -117 30 -162 32 -32 42 -36 85 -36 47 0 99 25 108 51 2 5 -33 39 -76 74 -44 36 -80 68 -81 71 0 3 9 16 20 28 23 28 83 50 116 43 32 -6 71 -47 79 -82 8 -36 35 -62 35 -34 -1 30 -26 94 -47 116 -38 43 -109 63 -158 46z m15 -198 l45 -41 -28 -24 c-34 -30 -70 -32 -97 -5 -22 22 -27 78 -10 111 13 23 24 18 90 -41z"/><path id="p15hXfP3YK" d="M5083 1069 c-68 -45 -81 -68 -35 -61 30 4 43 -9 119 -120 36 -51 40 -67 21 -86 -20 -20 0 -26 42 -13 42 12 47 20 29 52 -10 19 -8 20 34 14 54 -8 83 0 98 26 7 15 7 24 -2 35 -16 19 -24 18 -53 -11 -41 -41 -86 -35 -131 18 -20 23 -48 61 -62 85 l-26 43 22 30 c29 39 18 37 -56 -12z"/><path id="prb3Hqqm0" d="M1596 1040 c5 -24 -2 -45 -37 -102 -56 -95 -67 -108 -96 -108 -29 0 -29 -8 3 -44 22 -25 29 -28 45 -18 25 16 25 16 39 -18 14 -34 59 -70 87 -70 28 0 68 43 128 136 47 72 59 84 82 84 l28 0 -23 18 c-36 28 -91 56 -98 49 -3 -3 -1 -14 5 -25 9 -16 1 -35 -43 -108 -70 -117 -110 -134 -153 -63 -21 35 -13 60 47 152 35 54 56 77 70 77 11 0 20 3 20 8 0 6 -94 62 -105 62 -2 0 -2 -13 1 -30z"/><path id="p14EzEiI6Y" d="M4888 948 c-23 -6 -51 -25 -73 -49 -31 -34 -35 -45 -35 -92 0 -71 40 -135 102 -166 52 -25 76 -26 123 -7 46 20 75 69 75 127 0 73 -12 75 -120 18 -106 -56 -112 -55 -125 21 -13 79 48 138 131 125 29 -4 44 -3 44 5 0 20 -71 31 -122 18z m146 -190 c11 -41 6 -68 -14 -88 -29 -29 -74 -25 -111 8 l-32 29 64 36 c75 43 85 44 93 15z"/><path id="pUxK29EBs" d="M1926 828 c-13 -18 -43 -74 -66 -125 -42 -91 -43 -92 -73 -86 -30 6 -30 6 -14 -18 11 -15 17 -43 17 -77 0 -47 2 -53 15 -42 8 7 15 17 15 22 0 5 7 19 16 33 15 22 17 23 49 9 40 -17 55 -18 55 -4 0 5 -15 16 -34 24 -18 8 -36 18 -39 23 -6 10 77 190 100 215 23 26 48 22 71 -9 24 -32 39 -26 22 9 -34 64 -95 76 -134 26z"/><path id="ph4TcYgBQ" d="M2246 834 c-9 -8 -16 -19 -16 -24 0 -9 28 -40 36 -40 3 0 19 7 36 16 26 14 32 14 45 2 12 -13 5 -44 -52 -233 -81 -268 -81 -269 -123 -273 -37 -4 -42 -17 -9 -26 12 -3 52 -14 89 -25 39 -11 70 -16 73 -10 4 5 -5 13 -19 19 -14 5 -26 17 -26 26 0 9 27 106 60 216 33 111 60 217 60 237 0 47 -28 102 -60 118 -34 17 -75 16 -94 -3z"/><path id="pTpXIoD6K" d="M4533 782 l-53 -27 0 -52 c0 -29 3 -53 8 -53 4 0 17 24 30 54 29 67 81 97 121 70 35 -25 25 -54 -41 -121 -52 -53 -62 -68 -62 -97 0 -38 25 -73 63 -87 18 -7 38 -2 87 21 63 29 64 31 64 69 0 57 -16 59 -41 6 -31 -67 -85 -95 -117 -63 -24 24 -12 55 38 102 70 66 84 89 76 131 -8 42 -48 75 -90 74 -17 0 -55 -12 -83 -27z"/><path id="pWGbboEY5" d="M4254 694 c-74 -36 -96 -146 -44 -227 38 -60 81 -87 142 -87 39 0 52 5 82 34 40 37 42 44 21 72 -15 19 -15 19 -35 -5 -11 -13 -20 -31 -20 -40 0 -26 -21 -41 -56 -41 -55 0 -104 84 -104 177 0 36 6 50 29 74 33 33 67 37 112 13 31 -15 46 -14 35 4 -10 17 -73 42 -103 42 -15 0 -42 -7 -59 -16z"/><path id="pzHQh0BVQ" d="M2574 640 c-11 -4 -34 -22 -51 -39 -105 -104 -44 -283 97 -285 48 -1 54 2 90 40 44 48 64 108 55 166 -15 86 -115 149 -191 118z m90 -21 c35 -16 50 -59 43 -129 -6 -68 -45 -145 -78 -155 -29 -10 -79 14 -90 42 -29 76 6 213 61 240 31 16 33 16 64 2z"/><path id="pYG0mo5BB" d="M3838 598 c-55 -10 -80 -28 -39 -28 30 0 38 -19 55 -128 21 -132 21 -131 -10 -142 -29 -11 -24 -30 9 -30 17 0 28 -13 49 -58 37 -80 98 -113 139 -76 36 33 -7 59 -52 32 -17 -11 -22 -10 -33 5 -17 22 -30 98 -19 108 4 4 19 9 32 11 43 6 37 28 -7 28 l-40 0 -11 78 c-26 183 -26 170 3 183 14 7 26 16 26 21 0 10 -26 9 -102 -4z"/><path id="pqYvBwZEn" d="M2830 595 c0 -3 34 -74 76 -156 42 -83 74 -153 71 -155 -3 -3 -21 -2 -41 2 -26 4 -47 19 -76 53 -41 47 -47 43 -29 -21 7 -26 17 -40 32 -43 52 -13 173 -23 180 -16 5 5 -26 75 -67 157 -42 81 -74 150 -71 152 2 2 22 1 44 -3 32 -5 50 -17 80 -53 22 -25 42 -44 45 -41 3 2 -1 27 -8 54 -12 49 -13 50 -57 56 -98 14 -179 20 -179 14z"/><path id="pGmabqoLx" d="M3238 573 l-57 -4 -17 -45 c-9 -24 -14 -47 -11 -50 3 -3 23 11 46 31 66 60 151 57 151 -5 0 -28 -23 -46 -99 -75 -79 -30 -90 -39 -98 -89 -5 -30 -1 -40 25 -65 28 -28 35 -30 95 -29 l66 2 17 38 c9 21 14 41 11 44 -3 3 -27 -10 -53 -30 -26 -20 -57 -36 -69 -36 -35 0 -57 23 -53 55 3 27 10 32 78 57 107 39 137 81 110 153 -8 21 -70 61 -82 53 -2 -1 -29 -3 -60 -5z"/><path id="pbnLD4Aay" d="M3534 561 c-37 -22 -74 -93 -74 -141 0 -84 77 -170 153 -170 72 0 119 41 133 115 l7 38 -111 -6 c-62 -3 -114 -2 -117 3 -11 17 8 93 29 117 31 35 94 42 141 14 42 -25 45 -25 45 -8 0 7 -17 23 -39 35 -49 28 -124 29 -167 3z m140 -187 c40 -15 -3 -104 -50 -104 -14 0 -34 5 -45 10 -18 10 -49 59 -49 79 0 6 28 12 63 14 34 2 63 4 64 5 1 1 8 -1 17 -4z"/><path id="pqBDVguYv" d="M2530 285 c0 -14 74 -117 88 -122 8 -3 18 0 23 8 6 10 -4 27 -34 57 -41 43 -77 69 -77 57z"/></g></g></svg>