<?xml version="1.0" encoding="UTF-8" standalone="no"?><!DOCTYPE svg PUBLIC "-//W3C//DTD SVG 1.1//EN" "http://www.w3.org/Graphics/SVG/1.1/DTD/svg11.dtd"><svg width="100%" height="100%" viewBox="0 0 6602 283" version="1.1" xmlns="http://www.w3.org/2000/svg" xmlns:xlink="http://www.w3.org/1999/xlink" xml:space="preserve" xmlns:serif="http://www.serif.com/" style="fill-rule:evenodd;clip-rule:evenodd;stroke-linejoin:round;stroke-miterlimit:2;"><g><path d="M1962.74,218.345c-7.555,0 -13.7,-6.083 -13.7,-13.558l-0,-4.125l6.82,0c0,1.733 1.409,3.142 3.142,3.142c1.733,-0 3.142,-1.409 3.142,-3.142l-0,-7c-0,-5.346 -4.35,-9.696 -9.696,-9.696c-5.346,0 -9.696,4.35 -9.696,9.696l-6.821,0.004l0,-0.004l-0.037,-17.85c-0,-10.617 8.633,-19.25 19.241,-19.25c10.613,0 19.246,8.633 19.246,19.242l0,7.729l-6.825,-0l0,-7.729c0,-6.85 -5.571,-12.421 -12.421,-12.421c-6.845,-0 -12.42,5.571 -12.42,12.421l0.012,4.512c2.729,-1.996 6.092,-3.175 9.721,-3.175c9.108,0 16.521,7.413 16.521,16.521l-0,7c-0,5.392 -4.309,9.8 -9.667,9.958c1.013,0.575 2.188,0.905 3.438,0.905c3.791,-0 6.879,-3.025 6.879,-6.738l-0,-4.125l6.821,0l-0,4.125c-0,7.475 -6.146,13.558 -13.7,13.558" style="fill:#8ec045;fill-rule:nonzero;"/><path d="M2000.04,218.345c-7.554,0 -13.7,-6.083 -13.7,-13.558l0,-4.125l6.821,0l0,4.125c0,3.713 3.088,6.738 6.879,6.738c1.25,-0 2.425,-0.33 3.438,-0.905c-5.359,-0.158 -9.667,-4.566 -9.667,-9.958l0,-7c0,-9.108 7.413,-16.521 16.521,-16.521c3.629,0 6.992,1.179 9.721,3.175l0.012,-4.521c0,-6.841 -5.575,-12.412 -12.421,-12.412c-6.85,-0 -12.42,5.571 -12.42,12.421l-0,7.908l-6.825,0l-0,-7.908c-0,-10.609 8.633,-19.242 19.245,-19.242c10.609,0 19.242,8.633 19.242,19.242l-0.037,17.858l-0,0.004l-6.821,-0.004c-0,-5.346 -4.35,-9.696 -9.696,-9.696c-5.346,0 -9.696,4.35 -9.696,9.696l0,7c0,1.733 1.408,3.142 3.142,3.142c1.733,-0 3.141,-1.409 3.141,-3.142l6.821,0l0,4.125c0,7.475 -6.146,13.558 -13.7,13.558" style="fill:#8ec045;fill-rule:nonzero;"/><path d="M1964.42,161.097l-6.821,0l0,-7.275c0.1,-6.475 4.796,-11.354 9.854,-15.654c2.959,-2.517 11.571,-9.633 11.938,-9.933l2.171,-1.796l2.17,1.796c0.367,0.3 8.984,7.416 11.938,9.929c5.058,4.304 9.754,9.183 9.858,15.658l0,7.142l-6.825,-0l0,-7.059c-0.071,-3.754 -3.625,-7.287 -7.454,-10.541c-2.012,-1.717 -6.85,-5.725 -9.687,-8.075c-2.834,2.35 -7.675,6.358 -9.688,8.075c-3.829,3.254 -7.379,6.787 -7.454,10.541l-0,7.192Z" style="fill:#8ec045;fill-rule:nonzero;"/><path d="M1968.97,197.25l24.842,0l-0,-3.808c-0,-3.15 -1.559,-6.042 -4.171,-7.738c-5.383,-3.491 -11.117,-3.491 -16.5,0c-2.613,1.696 -4.171,4.588 -4.171,7.738l0,3.808Zm31.663,6.821l-38.484,-0l0,-10.629c0,-5.467 2.721,-10.5 7.279,-13.459c3.763,-2.441 7.896,-3.729 11.963,-3.729c4.062,0 8.2,1.288 11.962,3.729c4.559,2.959 7.28,7.992 7.28,13.459l-0,10.629Z" style="fill:#8ec045;fill-rule:nonzero;"/><path d="M1981.39,234.605l-9.479,-6.946c-4.408,-3.234 -7.037,-8.425 -7.037,-13.892l6.821,0c-0,3.3 1.587,6.438 4.25,8.388l5.445,3.991l5.446,-3.991c2.663,-1.95 4.25,-5.088 4.25,-8.388l6.821,0c0,5.467 -2.629,10.658 -7.037,13.892l-9.48,6.946Z" style="fill:#8ec045;fill-rule:nonzero;"/><path d="M643.282,218.345c-7.554,0 -13.7,-6.083 -13.7,-13.558l0,-4.125l6.821,0c0,1.733 1.409,3.142 3.142,3.142c1.733,-0 3.142,-1.409 3.142,-3.142l-0,-7c-0,-5.346 -4.35,-9.696 -9.696,-9.696c-5.346,0 -9.696,4.35 -9.696,9.696l-6.821,0.004l-0.037,-17.854c-0,-10.617 8.633,-19.25 19.241,-19.25c10.613,0 19.246,8.633 19.246,19.242l0,7.729l-6.825,-0l0,-7.729c0,-6.85 -5.571,-12.421 -12.421,-12.421c-6.846,-0 -12.421,5.571 -12.421,12.421l0.013,4.512c2.729,-1.996 6.092,-3.175 9.721,-3.175c9.108,0 16.521,7.413 16.521,16.521l-0,7c-0,5.392 -4.309,9.8 -9.667,9.958c1.012,0.575 2.187,0.905 3.437,0.905c3.792,-0 6.88,-3.025 6.88,-6.738l-0,-4.125l6.82,0l0,4.125c0,7.475 -6.145,13.558 -13.7,13.558" style="fill:#8ec045;fill-rule:nonzero;"/><path d="M680.58,218.345c-7.555,0 -13.7,-6.083 -13.7,-13.558l-0,-4.125l6.82,0l0,4.125c0,3.713 3.088,6.738 6.88,6.738c1.25,-0 2.425,-0.33 3.437,-0.905c-5.358,-0.158 -9.667,-4.566 -9.667,-9.958l0,-7c0,-9.108 7.413,-16.521 16.521,-16.521c3.629,0 6.992,1.179 9.721,3.175l0.013,-4.521c-0,-6.841 -5.575,-12.412 -12.421,-12.412c-6.85,-0 -12.421,5.571 -12.421,12.421l-0,7.908l-6.825,0l-0,-7.908c-0,-10.609 8.633,-19.242 19.246,-19.242c10.608,0 19.241,8.633 19.241,19.242l-0.037,17.862l-6.821,-0.004c0,-5.346 -4.35,-9.696 -9.696,-9.696c-5.346,0 -9.696,4.35 -9.696,9.696l0,7c0,1.733 1.409,3.142 3.142,3.142c1.733,-0 3.142,-1.409 3.142,-3.142l6.821,0l-0,4.125c-0,7.475 -6.146,13.558 -13.7,13.558" style="fill:#8ec045;fill-rule:nonzero;"/><path d="M644.961,161.097l-6.821,0l0,-7.275c0.1,-6.475 4.796,-11.354 9.855,-15.654c2.958,-2.517 11.57,-9.633 11.937,-9.933l2.171,-1.796l2.171,1.796c0.366,0.3 8.983,7.416 11.937,9.933c5.059,4.3 9.754,9.179 9.859,15.654l-0,7.142l-6.825,-0l-0,-7.059c-0.071,-3.754 -3.625,-7.287 -7.455,-10.541c-2.012,-1.717 -6.85,-5.725 -9.687,-8.075c-2.833,2.35 -7.675,6.358 -9.688,8.075c-3.829,3.254 -7.379,6.787 -7.454,10.541l0,7.192Z" style="fill:#8ec045;fill-rule:nonzero;"/><path d="M649.51,197.25l24.842,0l0,-3.808c0,-3.15 -1.558,-6.042 -4.171,-7.738c-5.383,-3.491 -11.116,-3.491 -16.5,0c-2.612,1.696 -4.171,4.588 -4.171,7.738l0,3.808Zm31.663,6.821l-38.483,-0l-0,-10.629c-0,-5.467 2.72,-10.5 7.279,-13.459c3.762,-2.441 7.896,-3.729 11.962,-3.729c4.067,0 8.2,1.288 11.963,3.729c4.558,2.959 7.279,7.992 7.279,13.459l-0,10.629Z" style="fill:#8ec045;fill-rule:nonzero;"/><path d="M661.931,234.605l-9.479,-6.946c-4.408,-3.234 -7.037,-8.425 -7.037,-13.892l6.82,0c0,3.3 1.588,6.438 4.25,8.388l5.446,3.991l5.446,-3.991c2.663,-1.95 4.25,-5.088 4.25,-8.388l6.821,0c-0,5.467 -2.629,10.658 -7.038,13.892l-9.479,6.946Z" style="fill:#8ec045;fill-rule:nonzero;"/><path d="M107.093,114.617l85.737,-0l-34.804,-38.85l-128.629,-0l77.696,38.85Zm101.008,6.82l-102.621,0l-104.983,-52.491l160.579,-0l47.025,52.491Z" style="fill:#8ec045;fill-rule:nonzero;"/><path d="M202.199,114.852l132.862,21.4l-40.325,-60.483l-127.55,-0l35.013,39.083Zm147.208,30.621l-150.679,-24.271l-46.813,-52.258l146.475,-0l51.017,76.529Z" style="fill:#8ec045;fill-rule:nonzero;"/><path d="M573.347,192.806l-94.704,-2.879l-137.487,-45.829l2.158,-6.471l136.538,45.512l93.704,2.85l-0.209,6.817Z" style="fill:#8ec045;fill-rule:nonzero;"/><path d="M296.987,68.973l-0.846,6.767l182.683,22.838l0.846,-6.767l-182.683,-22.838Z" style="fill:#8ec045;"/><path d="M1029.12,75.768l-40.325,60.484l132.863,-21.4l35.012,-39.084l-127.55,0Zm-54.671,69.704l51.021,-76.525l146.471,0l-46.813,52.255l-1.191,0.195l-149.488,24.075Z" style="fill:#8ec045;fill-rule:nonzero;"/><path d="M1348.85,68.946l70.762,-0l63.125,-31.563l0.279,-0.083l23.7,-7.204l-80.171,-0l-77.695,38.85Zm72.37,6.821l-101.27,-0l104.987,-52.492l127.704,-0l-67.366,20.467l-64.055,32.025Z" style="fill:#8ec045;fill-rule:nonzero;"/><path d="M1131.03,114.617l108.62,-0l0,-38.85l-73.812,-0l-34.808,38.85Zm120.608,6.82l-135.883,0l47.037,-52.491l83.683,-0l0,47.225l5.163,5.266Z" style="fill:#8ec045;fill-rule:nonzero;"/><path d="M1267.33,137.453l58.838,-0l-40.846,-40.846l-0,-48.5l40.846,-40.846l-58.859,-0l-20.837,20.837l-0,88.071l20.858,21.284Zm75.309,6.82l-78.175,0l-24.813,-25.316l0,-93.684l24.833,-24.833l78.155,0l-50.496,50.496l-0,42.846l50.496,50.491Z" style="fill:#8ec045;fill-rule:nonzero;"/><path d="M1292.14,68.946l41.454,-0l80.525,-40.263l-88.729,-11l-33.25,33.25l0,18.013Zm43.067,6.821l-49.888,-0l0,-27.659l37.604,-37.604l114.438,14.188l-102.154,51.075Z" style="fill:#8ec045;fill-rule:nonzero;"/><path d="M1107.07,68.946l132.579,-0l0,-38.85l-74.304,-0l-58.275,38.85Zm139.4,6.821l-161.933,-0l78.742,-52.492l83.191,-0l0,52.492Z" style="fill:#8ec045;fill-rule:nonzero;"/><path d="M1292.14,93.78l33.25,33.25l88.729,-11l-80.525,-40.263l-41.454,0l0,18.013Zm30.783,40.433l-37.604,-37.608l0,-27.659l49.888,0l102.154,51.079l-114.438,14.188Z" style="fill:#8ec045;fill-rule:nonzero;"/><path d="M750.515,192.806l-0.209,-6.817l93.704,-2.85l136.538,-45.512l2.158,6.471l-137.487,45.829l-94.704,2.879Z" style="fill:#8ec045;fill-rule:nonzero;"/><path d="M1026.88,68.973l-182.684,22.822l0.847,6.783l182.685,-22.822l-0.848,-6.783Z" style="fill:#8ec045;"/><path d="M487.482,98.604l174.45,174.45l174.446,-174.45l-348.896,-0Zm174.45,184.096l-190.92,-190.917l381.837,-0l-190.917,190.917Z" style="fill:#8ec045;fill-rule:nonzero;"/><path d="M1426.55,114.617l85.738,-0l-34.805,-38.85l-128.629,-0l77.696,38.85Zm101.008,6.82l-102.62,0l-104.984,-52.491l160.579,-0l47.025,52.491Z" style="fill:#8ec045;fill-rule:nonzero;"/><path d="M1521.65,114.852l132.863,21.4l-40.325,-60.483l-127.55,-0l35.012,39.083Zm147.209,30.621l-150.679,-24.271l-46.813,-52.258l146.475,-0l51.017,76.529Z" style="fill:#8ec045;fill-rule:nonzero;"/><path d="M1892.8,192.806l-94.704,-2.879l-137.487,-45.829l2.158,-6.471l136.537,45.512l93.705,2.85l-0.209,6.817Z" style="fill:#8ec045;fill-rule:nonzero;"/><path d="M1616.44,68.973l-0.846,6.767l182.684,22.838l0.846,-6.767l-182.684,-22.838Z" style="fill:#8ec045;"/><path d="M2348.58,75.768l-40.325,60.484l132.862,-21.4l35.013,-39.084l-127.55,0Zm-54.671,69.704l51.021,-76.525l146.471,0l-46.813,52.255l-150.679,24.27Z" style="fill:#8ec045;fill-rule:nonzero;"/><path d="M2668.31,68.946l70.762,-0l63.125,-31.563l0.279,-0.083l23.7,-7.204l-80.17,-0l-77.696,38.85Zm72.371,6.821l-101.271,-0l104.987,-52.492l127.7,-0l-67.362,20.467l-64.054,32.025Z" style="fill:#8ec045;fill-rule:nonzero;"/><path d="M2450.48,114.617l108.621,-0l0,-38.85l-73.812,-0l-34.809,38.85Zm120.609,6.82l-135.884,0l47.038,-52.491l83.683,-0l0,47.225l5.163,5.266Z" style="fill:#8ec045;fill-rule:nonzero;"/><path d="M2586.78,137.453l58.838,-0l-40.846,-40.846l-0,-48.5l40.845,-40.846l-58.858,-0l-20.837,20.837l-0,88.071l20.858,21.284Zm75.308,6.82l-78.175,0l-24.812,-25.316l-0,-93.684l24.833,-24.833l78.154,0l-50.495,50.496l-0.001,42.846l50.496,50.491Z" style="fill:#8ec045;fill-rule:nonzero;"/><path d="M2611.6,68.946l41.454,-0l80.525,-40.263l-88.729,-11l-33.25,33.25l-0,18.013Zm43.066,6.821l-49.887,-0l-0,-27.659l37.604,-37.604l114.438,14.188l-102.155,51.075Z" style="fill:#8ec045;fill-rule:nonzero;"/><path d="M2426.53,68.946l132.579,-0l0,-38.85l-74.308,-0l-58.271,38.85Zm139.4,6.821l-161.933,-0l78.742,-52.492l83.191,-0l0,52.492Z" style="fill:#8ec045;fill-rule:nonzero;"/><path d="M2611.6,93.78l33.25,33.25l88.729,-11l-80.525,-40.263l-41.454,0l-0,18.013Zm30.783,40.433l-37.604,-37.608l-0,-27.659l49.887,0l102.155,51.079l-114.438,14.188Z" style="fill:#8ec045;fill-rule:nonzero;"/><path d="M2069.97,192.806l-0.208,-6.817l93.704,-2.85l136.538,-45.512l2.158,6.471l-137.488,45.829l-94.704,2.879Z" style="fill:#8ec045;fill-rule:nonzero;"/><path d="M2346.33,68.973l-182.685,22.822l0.848,6.783l182.684,-22.822l-0.847,-6.783Z" style="fill:#8ec045;"/><path d="M1806.94,98.604l174.45,174.45l174.446,-174.45l-348.896,-0Zm174.45,184.096l-190.921,-190.917l381.838,-0l-190.917,190.917Z" style="fill:#8ec045;fill-rule:nonzero;"/><path d="M5921.11,218.355c-7.554,0 -13.7,-6.083 -13.7,-13.562l0,-4.121l6.821,-0c0,1.729 1.408,3.141 3.142,3.141c1.733,0 3.141,-1.412 3.141,-3.141l0,-7c0,-5.35 -4.35,-9.696 -9.695,-9.696c-5.346,-0 -9.696,4.346 -9.696,9.696l-6.821,0.004l-0,-0.004l-0.038,-17.85c0,-10.621 8.634,-19.25 19.242,-19.25c10.612,-0 19.246,8.629 19.246,19.241l-0,7.73l-6.825,-0l-0,-7.73c-0,-6.85 -5.571,-12.42 -12.421,-12.42c-6.846,-0 -12.421,5.57 -12.421,12.42l0.013,4.513c2.729,-1.996 6.091,-3.175 9.72,-3.175c9.109,-0 16.521,7.412 16.521,16.521l0,7c0,5.391 -4.308,9.8 -9.666,9.958c1.012,0.575 2.187,0.904 3.437,0.904c3.796,0 6.879,-3.025 6.879,-6.741l0,-4.121l6.821,-0l0,4.121c0,7.479 -6.146,13.562 -13.7,13.562" style="fill:#8ec045;fill-rule:nonzero;"/><path d="M5958.41,218.355c-7.554,0 -13.7,-6.083 -13.7,-13.562l0,-4.121l6.821,-0l0,4.121c0,3.716 3.088,6.741 6.879,6.741c1.25,0 2.425,-0.329 3.438,-0.904c-5.359,-0.158 -9.667,-4.567 -9.667,-9.958l0,-7c0,-9.109 7.413,-16.521 16.521,-16.521c3.629,-0 6.992,1.179 9.721,3.175l0.012,-4.521c0,-6.842 -5.571,-12.412 -12.421,-12.412c-6.85,-0 -12.42,5.57 -12.42,12.42l-0,7.909l-6.825,-0l-0,-7.909c-0,-10.612 8.633,-19.241 19.245,-19.241c10.609,-0 19.242,8.629 19.242,19.241l-0.037,17.859l-0,0.004l-6.821,-0.004c-0,-5.35 -4.35,-9.696 -9.696,-9.696c-5.346,-0 -9.696,4.346 -9.696,9.696l0,7c0,1.729 1.408,3.141 3.142,3.141c1.733,0 3.141,-1.412 3.141,-3.141l6.821,-0l0,4.121c0,7.479 -6.146,13.562 -13.7,13.562" style="fill:#8ec045;fill-rule:nonzero;"/><path d="M5922.79,161.106l-6.821,0l0,-7.275c0.1,-6.475 4.796,-11.354 9.854,-15.654c2.959,-2.517 11.571,-9.633 11.938,-9.933l2.171,-1.796l2.17,1.796c0.367,0.3 8.984,7.416 11.938,9.933c5.058,4.3 9.754,9.175 9.854,15.654l0.004,0.054l0,7.088l-6.825,-0l0,-7.058c-0.071,-3.755 -3.625,-7.288 -7.454,-10.542c-2.012,-1.717 -6.85,-5.725 -9.687,-8.075c-2.834,2.35 -7.675,6.358 -9.688,8.075c-3.829,3.254 -7.379,6.787 -7.454,10.542l-0,7.191Z" style="fill:#8ec045;fill-rule:nonzero;"/><path d="M5927.34,197.259l24.842,-0l-0,-3.809c-0,-3.145 -1.559,-6.041 -4.171,-7.733c-5.383,-3.496 -11.117,-3.496 -16.5,0c-2.613,1.692 -4.171,4.588 -4.171,7.733l0,3.809Zm31.663,6.821l-38.484,-0l0,-10.63c0,-5.466 2.721,-10.5 7.279,-13.458c3.763,-2.442 7.9,-3.729 11.963,-3.729c4.062,-0 8.2,1.287 11.962,3.729c4.559,2.958 7.28,7.992 7.28,13.458l-0,10.63Z" style="fill:#8ec045;fill-rule:nonzero;"/><path d="M5939.76,234.614l-9.479,-6.946c-4.409,-3.233 -7.038,-8.425 -7.038,-13.891l6.821,-0c0,3.3 1.588,6.437 4.25,8.387l5.446,3.992l5.446,-3.992c2.662,-1.95 4.25,-5.087 4.25,-8.387l6.821,-0c-0,5.466 -2.63,10.658 -7.038,13.891l-9.479,6.946Z" style="fill:#8ec045;fill-rule:nonzero;"/><path d="M5384.92,114.626l85.737,-0l-34.804,-38.85l-128.629,-0l77.696,38.85Zm101.008,6.821l-102.617,-0l-104.987,-52.492l160.579,-0l47.025,52.492Z" style="fill:#8ec045;fill-rule:nonzero;"/><path d="M6408.87,114.617l85.738,-0l77.696,-38.85l-128.634,-0l-34.8,38.85Zm87.346,6.82l-102.617,0l47.025,-52.491l160.58,-0l-104.988,52.491Z" style="fill:#8ec045;fill-rule:nonzero;"/><path d="M5480.03,114.862l132.863,21.4l-40.325,-60.484l-127.55,0l35.012,39.084Zm147.209,30.621l-150.679,-24.271l-46.813,-52.259l146.475,0l51.017,76.53Z" style="fill:#8ec045;fill-rule:nonzero;"/><path d="M5851.18,192.815l-94.705,-2.875l-0.475,-0.158l-137.012,-45.675l2.158,-6.471l136.538,45.512l93.704,2.846l-0.208,6.821Z" style="fill:#8ec045;fill-rule:nonzero;"/><path d="M5574.81,68.982l-0.846,6.771l182.684,22.834l0.846,-6.771l-182.684,-22.834Z" style="fill:#8ec045;"/><path d="M6306.95,75.777l-40.321,60.484l132.858,-21.4l35.013,-39.084l-127.55,0Zm-54.671,69.705l51.021,-76.525l146.475,-0l-46.817,52.254l-1.192,0.196l-149.487,24.075Z" style="fill:#8ec045;fill-rule:nonzero;"/><path d="M6028.34,192.815l-0.208,-6.821l93.704,-2.846l136.538,-45.512l2.158,6.471l-137.488,45.833l-0.5,0.013l-94.204,2.862Z" style="fill:#8ec045;fill-rule:nonzero;"/><path d="M6304.7,68.982l-182.685,22.822l0.847,6.783l182.685,-22.822l-0.847,-6.783Z" style="fill:#8ec045;"/><path d="M5765.31,98.612l174.45,174.45l174.446,-174.45l-348.896,0Zm174.45,184.096l-2.412,-2.412l-188.509,-188.504l381.838,-0l-190.917,190.916Z" style="fill:#8ec045;fill-rule:nonzero;"/><path d="M4601.65,218.345c-7.555,0 -13.7,-6.083 -13.7,-13.558l-0.001,-4.125l6.821,0c0,1.733 1.409,3.142 3.142,3.142c1.733,-0 3.142,-1.409 3.142,-3.142l-0,-7c-0,-5.346 -4.35,-9.696 -9.696,-9.696c-5.346,0 -9.696,4.35 -9.696,9.696l-6.821,0.004l0,-0.004l-0.037,-17.85c-0,-10.617 8.633,-19.25 19.241,-19.25c10.613,0 19.246,8.633 19.246,19.242l0,7.729l-6.825,-0l0,-7.729c0,-6.85 -5.571,-12.421 -12.421,-12.421c-6.845,-0 -12.42,5.571 -12.42,12.421l0.012,4.512c2.729,-1.996 6.092,-3.175 9.721,-3.175c9.108,0 16.521,7.413 16.521,16.521l-0,7c-0,5.392 -4.309,9.8 -9.667,9.958c1.013,0.575 2.188,0.905 3.438,0.905c3.795,-0 6.879,-3.025 6.879,-6.738l-0,-4.125l6.821,0l-0,4.125c-0,7.475 -6.146,13.558 -13.7,13.558" style="fill:#8ec045;fill-rule:nonzero;"/><path d="M4638.95,218.345c-7.555,0 -13.7,-6.083 -13.7,-13.558l-0,-4.125l6.82,0l0,4.125c0,3.713 3.088,6.738 6.88,6.738c1.25,-0 2.425,-0.33 3.437,-0.905c-5.358,-0.158 -9.667,-4.566 -9.667,-9.958l0,-7c0,-9.108 7.413,-16.521 16.521,-16.521c3.629,0 6.992,1.179 9.721,3.175l0.013,-4.521c-0,-6.841 -5.575,-12.412 -12.421,-12.412c-6.85,-0 -12.421,5.571 -12.421,12.421l-0,7.908l-6.825,0l-0,-7.908c-0,-10.609 8.633,-19.242 19.246,-19.242c10.608,0 19.241,8.633 19.241,19.242l-0.037,17.858l-0,0.004l-6.821,-0.004c0,-5.346 -4.35,-9.696 -9.696,-9.696c-5.346,0 -9.696,4.35 -9.696,9.696l0,7c0,1.733 1.409,3.142 3.142,3.142c1.733,-0 3.142,-1.409 3.142,-3.142l6.821,0l-0,4.125c-0,7.475 -6.146,13.558 -13.7,13.558" style="fill:#8ec045;fill-rule:nonzero;"/><path d="M4603.33,161.097l-6.821,0l0,-7.275c0.1,-6.475 4.796,-11.354 9.855,-15.654c2.958,-2.517 11.57,-9.633 11.937,-9.933l2.171,-1.796l2.175,1.796c0.362,0.3 8.979,7.416 11.933,9.933c5.059,4.3 9.754,9.179 9.859,15.654l-0,7.142l-6.825,-0l-0,-7.059c-0.071,-3.754 -3.625,-7.287 -7.455,-10.541c-2.012,-1.717 -6.85,-5.725 -9.687,-8.075c-2.833,2.35 -7.671,6.358 -9.688,8.075c-3.829,3.254 -7.379,6.787 -7.454,10.541l0,7.192Z" style="fill:#8ec045;fill-rule:nonzero;"/><path d="M4607.88,197.25l24.841,0l0,-3.808c0,-3.15 -1.558,-6.042 -4.17,-7.738c-5.384,-3.491 -11.117,-3.491 -16.5,0c-2.613,1.696 -4.171,4.588 -4.171,7.738l-0,3.808Zm31.662,6.821l-38.483,-0l-0,-10.629c-0,-5.467 2.721,-10.5 7.279,-13.459c3.758,-2.441 7.896,-3.729 11.963,-3.729c4.066,0 8.2,1.288 11.962,3.729c4.558,2.959 7.279,7.992 7.279,13.459l0,10.629Z" style="fill:#8ec045;fill-rule:nonzero;"/><path d="M4620.3,234.605l-9.479,-6.946c-4.408,-3.234 -7.037,-8.425 -7.037,-13.892l6.82,0c0,3.3 1.588,6.438 4.25,8.388l5.446,3.991l5.446,-3.991c2.663,-1.95 4.25,-5.088 4.25,-8.388l6.821,0c-0,5.467 -2.629,10.658 -7.038,13.892l-9.479,6.946Z" style="fill:#8ec045;fill-rule:nonzero;"/><path d="M3282.2,218.345c-7.554,0 -13.7,-6.083 -13.7,-13.558l0,-4.125l6.821,0c0,1.733 1.408,3.142 3.142,3.142c1.733,-0 3.141,-1.409 3.141,-3.142l0,-7c0,-5.346 -4.35,-9.696 -9.695,-9.696c-5.346,0 -9.696,4.35 -9.696,9.696l-6.821,0.004l-0.038,-17.854c0,-10.617 8.634,-19.25 19.242,-19.25c10.613,0 19.246,8.633 19.246,19.242l-0,7.729l-6.825,-0l-0,-7.729c-0,-6.85 -5.571,-12.421 -12.421,-12.421c-6.846,-0 -12.421,5.571 -12.421,12.421l0.013,4.512c2.729,-1.996 6.091,-3.175 9.721,-3.175c9.108,0 16.52,7.413 16.52,16.521l0,7c0,5.392 -4.308,9.8 -9.666,9.958c1.012,0.575 2.187,0.905 3.437,0.905c3.792,-0 6.879,-3.025 6.879,-6.738l0,-4.125l6.821,0l0,4.125c0,7.475 -6.146,13.558 -13.7,13.558" style="fill:#8ec045;fill-rule:nonzero;"/><path d="M3319.49,218.345c-7.554,0 -13.7,-6.083 -13.7,-13.558l-0,-4.125l6.821,0l-0,4.125c-0,3.713 3.087,6.738 6.879,6.738c1.25,-0 2.425,-0.33 3.437,-0.905c-5.358,-0.158 -9.666,-4.566 -9.666,-9.958l-0,-7c-0,-9.108 7.412,-16.521 16.521,-16.521c3.629,0 6.991,1.179 9.72,3.175l0.013,-4.521c-0,-6.841 -5.575,-12.412 -12.421,-12.412c-6.85,-0 -12.421,5.571 -12.421,12.421l0,7.908l-6.825,0l0,-7.908c0,-10.609 8.634,-19.242 19.246,-19.242c10.608,0 19.242,8.633 19.242,19.242l-0.038,17.858l0,0.004l-6.821,-0.004c0,-5.346 -4.35,-9.696 -9.695,-9.696c-5.346,0 -9.696,4.35 -9.696,9.696l-0,7c-0,1.733 1.408,3.142 3.141,3.142c1.734,-0 3.142,-1.409 3.142,-3.142l6.821,0l-0,4.125c-0,7.475 -6.146,13.558 -13.7,13.558" style="fill:#8ec045;fill-rule:nonzero;"/><path d="M3283.88,161.097l-6.821,0l-0,-7.275c0.1,-6.475 4.796,-11.354 9.854,-15.654c2.958,-2.517 11.571,-9.633 11.937,-9.933l2.171,-1.796l2.171,1.796c0.367,0.3 8.983,7.416 11.938,9.933c5.058,4.3 9.754,9.179 9.858,15.654l-0,7.142l-6.825,-0l-0,-7.059c-0.071,-3.754 -3.625,-7.287 -7.454,-10.541c-2.013,-1.717 -6.85,-5.725 -9.688,-8.075c-2.833,2.35 -7.675,6.358 -9.687,8.075c-3.829,3.258 -7.379,6.787 -7.454,10.541l-0,7.192Z" style="fill:#8ec045;fill-rule:nonzero;"/><path d="M3288.42,197.25l24.841,0l0,-3.808c0,-3.15 -1.558,-6.042 -4.17,-7.734c-5.384,-3.495 -11.117,-3.495 -16.5,-0.004c-2.613,1.696 -4.171,4.588 -4.171,7.738l-0,3.808Zm31.662,6.821l-38.483,-0l-0,-10.629c-0,-5.467 2.721,-10.5 7.279,-13.459c3.763,-2.441 7.896,-3.729 11.963,-3.729c4.062,0 8.2,1.288 11.962,3.729c4.558,2.959 7.279,7.992 7.279,13.459l0,10.629Z" style="fill:#8ec045;fill-rule:nonzero;"/><path d="M3300.85,234.605l-9.48,-6.946c-4.408,-3.234 -7.037,-8.425 -7.037,-13.892l6.821,0c-0,3.3 1.587,6.438 4.25,8.388l5.446,3.991l5.445,-3.991c2.663,-1.95 4.25,-5.088 4.25,-8.388l6.821,0c0,5.467 -2.629,10.658 -7.037,13.892l-9.479,6.946Z" style="fill:#8ec045;fill-rule:nonzero;"/><path d="M2746.01,114.617l85.737,-0l-34.804,-38.85l-128.629,-0l77.696,38.85Zm101.008,6.82l-102.621,0l-104.983,-52.491l160.579,-0l47.025,52.491Z" style="fill:#8ec045;fill-rule:nonzero;"/><path d="M2841.11,114.852l132.863,21.4l-40.325,-60.483l-127.55,-0l35.012,39.083Zm147.209,30.621l-150.679,-24.271l-46.813,-52.258l146.475,-0l51.017,76.529Z" style="fill:#8ec045;fill-rule:nonzero;"/><path d="M3212.26,192.806l-94.704,-2.879l-137.488,-45.829l2.159,-6.471l136.537,45.512l93.704,2.85l-0.208,6.817Z" style="fill:#8ec045;fill-rule:nonzero;"/><path d="M2935.9,68.973l-0.846,6.767l182.683,22.838l0.846,-6.767l-182.683,-22.838Z" style="fill:#8ec045;"/><path d="M3668.04,75.768l-40.32,60.484l132.858,-21.4l35.012,-39.084l-127.55,0Zm-54.67,69.704l51.02,-76.525l146.475,0l-46.816,52.255l-150.679,24.27Z" style="fill:#8ec045;fill-rule:nonzero;"/><path d="M3987.76,68.946l70.763,-0l63.125,-31.563l0.275,-0.083l23.704,-7.204l-80.171,-0l-77.696,38.85Zm72.371,6.821l-101.271,-0l104.988,-52.492l127.7,-0l-67.363,20.467l-64.054,32.025Z" style="fill:#8ec045;fill-rule:nonzero;"/><path d="M3769.94,114.617l108.621,-0l0,-38.85l-73.812,-0l-34.809,38.85Zm120.609,6.82l-135.884,0l47.038,-52.491l83.683,-0l0,47.225l5.163,5.266Z" style="fill:#8ec045;fill-rule:nonzero;"/><path d="M3906.24,137.453l58.838,-0l-40.846,-40.846l-0,-48.5l40.846,-40.846l-58.859,-0l-20.837,20.837l-0,88.071l20.858,21.284Zm75.308,6.82l-78.175,0l-24.812,-25.316l-0,-93.684l24.833,-24.833l78.154,0l-50.495,50.496l-0,42.846l50.495,50.491Z" style="fill:#8ec045;fill-rule:nonzero;"/><path d="M3931.06,68.946l41.455,-0l80.525,-40.263l-88.73,-11l-33.25,33.25l0,18.013Zm43.067,6.821l-49.887,-0l-0,-27.659l37.604,-37.604l114.441,14.188l-102.158,51.075Z" style="fill:#8ec045;fill-rule:nonzero;"/><path d="M3745.99,68.946l132.579,-0l0,-38.85l-74.308,-0l-58.271,38.85Zm139.4,6.821l-161.933,-0l78.741,-52.492l83.192,-0l-0,52.492Z" style="fill:#8ec045;fill-rule:nonzero;"/><path d="M3931.06,93.78l33.25,33.25l88.73,-11l-80.525,-40.263l-41.455,0l0,18.013Zm30.784,40.433l-37.604,-37.608l-0,-27.659l49.887,0l102.158,51.079l-114.441,14.188Z" style="fill:#8ec045;fill-rule:nonzero;"/><path d="M3389.43,192.806l-0.208,-6.817l93.704,-2.85l136.537,-45.512l2.159,6.471l-137.488,45.829l-94.704,2.879Z" style="fill:#8ec045;fill-rule:nonzero;"/><path d="M3665.79,68.973l-182.685,22.822l0.847,6.783l182.685,-22.822l-0.847,-6.783Z" style="fill:#8ec045;"/><path d="M3126.4,98.604l174.45,174.45l174.446,-174.45l-348.896,-0Zm174.45,184.096l-190.921,-190.917l381.837,-0l-190.916,190.917Z" style="fill:#8ec045;fill-rule:nonzero;"/><path d="M4065.46,114.617l85.738,-0l-34.804,-38.85l-128.629,-0l77.695,38.85Zm101.009,6.82l-102.617,0l-104.987,-52.491l160.579,-0l47.025,52.491Z" style="fill:#8ec045;fill-rule:nonzero;"/><path d="M4160.57,114.852l132.862,21.4l-40.325,-60.483l-127.55,-0l35.013,39.083Zm147.208,30.621l-150.679,-24.271l-46.813,-52.258l146.475,-0l51.017,76.529Z" style="fill:#8ec045;fill-rule:nonzero;"/><path d="M4531.72,192.806l-94.704,-2.879l-137.488,-45.829l2.159,-6.471l136.537,45.512l93.704,2.85l-0.208,6.817Z" style="fill:#8ec045;fill-rule:nonzero;"/><path d="M4255.36,68.973l-0.846,6.767l182.684,22.838l0.846,-6.767l-182.684,-22.838Z" style="fill:#8ec045;"/><path d="M4987.49,75.768l-40.325,60.484l132.862,-21.4l35.013,-39.084l-127.55,0Zm-54.671,69.704l51.021,-76.525l146.475,0l-46.817,52.255l-1.192,0.195l-149.487,24.075Z" style="fill:#8ec045;fill-rule:nonzero;"/><path d="M5307.22,68.946l70.763,-0l63.125,-31.563l0.275,-0.083l23.704,-7.204l-80.171,-0l-77.696,38.85Zm72.371,6.821l-101.271,-0l104.988,-52.492l127.704,-0l-67.367,20.467l-64.054,32.025Z" style="fill:#8ec045;fill-rule:nonzero;"/><path d="M5089.4,114.617l108.621,-0l-0,-38.85l-73.813,-0l-34.808,38.85Zm120.608,6.82l-135.879,0l47.033,-52.491l83.684,-0l-0.001,47.225l5.163,5.266Z" style="fill:#8ec045;fill-rule:nonzero;"/><path d="M5225.7,137.453l58.837,-0l-40.846,-40.846l0,-48.5l40.846,-40.846l-58.858,-0l-20.838,20.837l0,88.071l20.859,21.284Zm75.308,6.82l-78.175,0l-24.812,-25.316l-0,-93.684l24.833,-24.833l78.154,0l-50.496,50.496l0,42.846l50.496,50.491Z" style="fill:#8ec045;fill-rule:nonzero;"/><path d="M5250.51,68.946l41.454,-0l80.525,-40.263l-88.729,-11l-33.25,33.25l0,18.013Zm43.067,6.821l-49.888,-0l0,-27.659l37.604,-37.604l114.442,14.188l-102.158,51.075Z" style="fill:#8ec045;fill-rule:nonzero;"/><path d="M5065.44,68.946l132.579,-0l-0,-38.85l-74.304,-0l-58.275,38.85Zm139.4,6.821l-161.934,-0l78.742,-52.492l83.192,-0l-0,52.492Z" style="fill:#8ec045;fill-rule:nonzero;"/><path d="M5250.51,93.78l33.25,33.25l88.729,-11l-80.525,-40.263l-41.454,0l0,18.013Zm30.783,40.433l-37.604,-37.608l0,-27.659l49.888,0l102.158,51.079l-114.442,14.188Z" style="fill:#8ec045;fill-rule:nonzero;"/><path d="M4708.89,192.806l-0.209,-6.817l93.704,-2.85l136.538,-45.512l2.158,6.471l-137.487,45.829l-94.704,2.879Z" style="fill:#8ec045;fill-rule:nonzero;"/><path d="M4985.25,68.973l-182.685,22.822l0.847,6.783l182.685,-22.822l-0.847,-6.783Z" style="fill:#8ec045;"/><path d="M4445.85,98.604l174.45,174.45l174.446,-174.45l-348.896,-0Zm174.45,184.096l-2.413,-2.413l-188.508,-188.504l381.838,-0l-190.917,190.917Z" style="fill:#8ec045;fill-rule:nonzero;"/></g></svg>